<svg width="38" height="5" fill="none" xmlns="http://www.w3.org/2000/svg"><path d="M2.973 3.26c.026 0 .05.01.07.033l.192.207a1.53 1.53 0 0 1-.535.397 1.8 1.8 0 0 1-.758.143c-.256 0-.49-.044-.7-.132a1.57 1.57 0 0 1-.537-.375 1.709 1.709 0 0 1-.345-.58 2.162 2.162 0 0 1-.122-.743c0-.27.042-.518.127-.742a1.603 1.603 0 0 1 .913-.955c.214-.09.452-.136.712-.136.255 0 .48.041.675.123a1.7 1.7 0 0 1 .515.333l-.16.222a.139.139 0 0 1-.04.042.112.112 0 0 1-.063.016c-.03 0-.066-.016-.11-.048a1.275 1.275 0 0 0-.82-.267c-.185 0-.354.032-.507.097a1.106 1.106 0 0 0-.397.278c-.11.121-.196.27-.258.444a1.776 1.776 0 0 0-.092.593c0 .223.031.422.095.598.065.175.152.323.262.445.112.12.242.211.392.274.152.064.316.095.49.095.107 0 .203-.005.288-.017.087-.013.166-.033.238-.06a.996.996 0 0 0 .202-.1c.063-.042.126-.09.188-.147a.13.13 0 0 1 .085-.038Zm2.092-.4c-.205.007-.38.023-.525.05a1.476 1.476 0 0 0-.353.1.499.499 0 0 0-.197.148.322.322 0 0 0-.06.19c0 .066.01.124.032.172a.34.34 0 0 0 .088.12c.038.03.082.052.132.067.052.014.107.02.165.02.079 0 .15-.007.215-.022a.965.965 0 0 0 .348-.178c.053-.041.105-.089.155-.142V2.86ZM3.627 1.825c.14-.135.291-.236.453-.302.162-.067.34-.1.537-.1.142 0 .268.023.378.07a.774.774 0 0 1 .447.497c.039.118.058.248.058.39V4h-.198a.204.204 0 0 1-.1-.02c-.023-.015-.041-.043-.055-.085l-.05-.24a2.704 2.704 0 0 1-.195.165 1.077 1.077 0 0 1-.425.193 1.154 1.154 0 0 1-.262.027.939.939 0 0 1-.278-.04.605.605 0 0 1-.38-.333.753.753 0 0 1-.055-.3c0-.1.028-.195.083-.287a.719.719 0 0 1 .267-.248 1.73 1.73 0 0 1 .483-.174c.198-.047.442-.074.73-.08V2.38c0-.197-.043-.345-.128-.445-.085-.102-.209-.153-.372-.153a.79.79 0 0 0-.278.043.985.985 0 0 0-.192.093c-.053.033-.1.064-.14.092a.2.2 0 0 1-.115.04.133.133 0 0 1-.078-.022.236.236 0 0 1-.055-.06l-.08-.143Zm2.97.01c.056-.062.114-.117.176-.167a1.12 1.12 0 0 1 .195-.128 1.018 1.018 0 0 1 .473-.113c.138 0 .26.024.364.07.107.045.195.11.265.195a.838.838 0 0 1 .163.303c.036.118.055.25.055.393V4H7.84V2.388c0-.192-.044-.34-.132-.446-.087-.106-.22-.16-.398-.16a.755.755 0 0 0-.37.095c-.113.064-.218.15-.315.258V4h-.447V1.468h.267c.064 0 .103.03.118.092l.035.275Zm3.741 1.025c-.205.007-.38.023-.525.05-.143.025-.26.058-.352.1a.499.499 0 0 0-.198.148.322.322 0 0 0-.06.19c0 .066.011.124.033.172a.34.34 0 0 0 .087.12c.039.03.083.052.133.067.051.014.106.02.165.02a.96.96 0 0 0 .215-.022.969.969 0 0 0 .348-.178c.053-.041.104-.089.154-.142V2.86ZM8.901 1.825c.14-.135.29-.236.452-.302.162-.067.341-.1.538-.1a.96.96 0 0 1 .377.07.774.774 0 0 1 .448.497c.038.118.057.248.057.39V4h-.197a.204.204 0 0 1-.1-.02c-.024-.015-.042-.043-.055-.085l-.05-.24a2.722 2.722 0 0 1-.195.165 1.077 1.077 0 0 1-.425.193 1.154 1.154 0 0 1-.263.027.939.939 0 0 1-.277-.04.605.605 0 0 1-.38-.333.753.753 0 0 1-.055-.3c0-.1.027-.195.082-.287a.719.719 0 0 1 .268-.248 1.73 1.73 0 0 1 .482-.174c.199-.047.442-.074.73-.08V2.38c0-.197-.042-.345-.127-.445-.085-.102-.21-.153-.373-.153a.79.79 0 0 0-.277.043.985.985 0 0 0-.193.093c-.053.033-.1.064-.14.092a.2.2 0 0 1-.115.04.133.133 0 0 1-.077-.022.236.236 0 0 1-.055-.06l-.08-.143Zm4.2.245a.707.707 0 0 0-.27-.232.76.76 0 0 0-.325-.068c-.235 0-.416.084-.542.252-.127.169-.19.409-.19.72 0 .166.014.307.042.425a.83.83 0 0 0 .125.29c.055.076.123.13.203.166.08.034.17.052.272.052a.715.715 0 0 0 .383-.1c.11-.067.21-.16.302-.283V2.07Zm.445-1.752V4h-.265c-.063 0-.103-.03-.12-.092l-.04-.308c-.108.13-.232.235-.37.315a.941.941 0 0 1-.48.12.832.832 0 0 1-.697-.33 1.173 1.173 0 0 1-.193-.405 2.085 2.085 0 0 1-.067-.557c0-.187.025-.36.075-.52.05-.162.121-.302.215-.42a.989.989 0 0 1 .802-.38.904.904 0 0 1 .695.297V.318h.445Zm2.075 2.542c-.205.007-.38.023-.524.05a1.463 1.463 0 0 0-.353.1.499.499 0 0 0-.197.148.322.322 0 0 0-.06.19c0 .066.01.124.032.172a.34.34 0 0 0 .088.12c.038.03.082.052.132.067.052.014.107.02.165.02a.96.96 0 0 0 .215-.022.969.969 0 0 0 .348-.178c.053-.041.105-.089.155-.142V2.86Zm-1.437-1.035c.14-.135.29-.236.453-.302.161-.067.34-.1.537-.1.142 0 .268.023.378.07a.774.774 0 0 1 .447.497c.038.118.057.248.057.39V4h-.197a.204.204 0 0 1-.1-.02c-.023-.015-.042-.043-.055-.085l-.05-.24a2.722 2.722 0 0 1-.195.165 1.077 1.077 0 0 1-.425.193 1.154 1.154 0 0 1-.263.027.939.939 0 0 1-.277-.04.605.605 0 0 1-.38-.333.753.753 0 0 1-.055-.3c0-.1.027-.195.083-.287a.719.719 0 0 1 .267-.248 1.73 1.73 0 0 1 .482-.174c.199-.047.442-.074.73-.08V2.38c0-.197-.042-.345-.127-.445-.085-.102-.21-.153-.373-.153a.79.79 0 0 0-.277.043.986.986 0 0 0-.192.093 2.96 2.96 0 0 0-.14.092.2.2 0 0 1-.116.04.133.133 0 0 1-.077-.022.236.236 0 0 1-.055-.06l-.08-.143Zm5.545.57v1.257a2.154 2.154 0 0 1-.565.288c-.2.067-.425.1-.675.1a2.11 2.11 0 0 1-.755-.127 1.653 1.653 0 0 1-.572-.365 1.624 1.624 0 0 1-.363-.573 2.118 2.118 0 0 1-.125-.745c0-.273.041-.52.123-.742a1.58 1.58 0 0 1 .355-.57 1.57 1.57 0 0 1 .56-.366c.218-.086.464-.13.737-.13.135 0 .26.01.373.028a1.663 1.663 0 0 1 .595.215c.085.052.166.112.245.18l-.07.11c-.023.04-.058.05-.105.028a.505.505 0 0 1-.108-.07 1.097 1.097 0 0 0-.192-.116 1.638 1.638 0 0 0-.745-.155 1.7 1.7 0 0 0-.625.11 1.332 1.332 0 0 0-.475.315 1.42 1.42 0 0 0-.303.5 1.97 1.97 0 0 0-.105.663c0 .248.035.472.105.67a1.4 1.4 0 0 0 .308.505c.135.138.298.244.49.318a1.8 1.8 0 0 0 .647.11 1.95 1.95 0 0 0 .545-.076 1.8 1.8 0 0 0 .235-.09c.077-.036.155-.077.233-.122v-.953h-.678a.07.07 0 0 1-.047-.017.055.055 0 0 1-.018-.04v-.14h.975Zm1.69-.923c.179 0 .338.031.478.093.142.06.26.146.357.258.097.111.17.246.22.405.052.156.078.332.078.527s-.026.37-.078.528c-.05.156-.123.29-.22.402a.961.961 0 0 1-.357.257c-.14.06-.3.09-.478.09a1.22 1.22 0 0 1-.48-.09.988.988 0 0 1-.357-.257 1.163 1.163 0 0 1-.223-.402 1.73 1.73 0 0 1-.075-.528c0-.195.025-.37.075-.527a1.16 1.16 0 0 1 .223-.406.988.988 0 0 1 .357-.257c.142-.062.302-.093.48-.093Zm0 2.373a.93.93 0 0 0 .388-.075.734.734 0 0 0 .277-.22.954.954 0 0 0 .168-.342 1.72 1.72 0 0 0 .055-.453c0-.165-.018-.315-.055-.45a.953.953 0 0 0-.168-.345.724.724 0 0 0-.277-.222.903.903 0 0 0-.388-.078.92.92 0 0 0-.39.078.75.75 0 0 0-.277.222 1.01 1.01 0 0 0-.168.345 1.714 1.714 0 0 0-.055.45c0 .167.019.317.055.453.039.133.095.247.168.342a.761.761 0 0 0 .277.22c.112.05.242.075.39.075Zm2.788-2.373c.179 0 .338.031.478.093.142.06.26.146.358.258.096.111.17.246.22.405.051.156.077.332.077.527s-.026.37-.078.528c-.05.156-.123.29-.22.402a.961.961 0 0 1-.357.257c-.14.06-.3.09-.477.09a1.22 1.22 0 0 1-.48-.09.988.988 0 0 1-.358-.257 1.163 1.163 0 0 1-.223-.402 1.73 1.73 0 0 1-.074-.528c0-.195.024-.37.075-.527a1.16 1.16 0 0 1 .222-.406.988.988 0 0 1 .357-.257c.142-.062.302-.093.48-.093Zm0 2.373a.93.93 0 0 0 .388-.075.734.734 0 0 0 .277-.22.954.954 0 0 0 .168-.342 1.72 1.72 0 0 0 .055-.453c0-.165-.018-.315-.055-.45a.953.953 0 0 0-.168-.345.724.724 0 0 0-.277-.222.903.903 0 0 0-.387-.078.92.92 0 0 0-.39.078.75.75 0 0 0-.278.222 1.01 1.01 0 0 0-.168.345 1.714 1.714 0 0 0-.055.45c0 .167.019.317.055.453.039.133.095.247.168.342a.761.761 0 0 0 .277.22c.112.05.242.075.39.075Zm3.171-2.025a.063.063 0 0 1-.057.035c-.019 0-.042-.01-.07-.03a.792.792 0 0 0-.115-.07.87.87 0 0 0-.43-.102.734.734 0 0 0-.248.04.61.61 0 0 0-.19.102.459.459 0 0 0-.12.153.398.398 0 0 0-.042.18c0 .078.02.143.06.194a.52.52 0 0 0 .155.133c.065.037.139.068.222.095l.253.08c.086.027.171.057.255.09a.869.869 0 0 1 .22.12.506.506 0 0 1 .217.433.79.79 0 0 1-.057.302.667.667 0 0 1-.17.242.8.8 0 0 1-.273.163c-.108.04-.232.06-.372.06-.175 0-.326-.027-.453-.083a1.295 1.295 0 0 1-.34-.22l.055-.085a.097.097 0 0 1 .028-.03.09.09 0 0 1 .045-.01c.021 0 .047.014.077.04.032.027.073.056.125.088a.867.867 0 0 0 .473.125.83.83 0 0 0 .277-.043c.08-.03.147-.07.2-.12a.484.484 0 0 0 .12-.175.556.556 0 0 0 .043-.215.344.344 0 0 0-.06-.207.514.514 0 0 0-.158-.14 1.093 1.093 0 0 0-.222-.097 15.483 15.483 0 0 0-.253-.08 4.155 4.155 0 0 1-.255-.088.93.93 0 0 1-.22-.12.584.584 0 0 1-.157-.175.594.594 0 0 1-.003-.515.655.655 0 0 1 .163-.215.82.82 0 0 1 .26-.147.99.99 0 0 1 .342-.056c.152 0 .286.022.403.066a.95.95 0 0 1 .322.2l-.05.082Zm2.502.685c0-.133-.02-.252-.058-.357a.746.746 0 0 0-.157-.27.676.676 0 0 0-.245-.168.936.936 0 0 0-.655 0 .767.767 0 0 0-.443.442 1.257 1.257 0 0 0-.09.353h1.648Zm-1.66.153v.047c0 .187.021.35.065.492.043.142.105.261.185.358a.76.76 0 0 0 .29.215.96.96 0 0 0 .38.072c.125 0 .233-.013.325-.04a1.289 1.289 0 0 0 .38-.184c.036-.029.063-.043.08-.043.021 0 .038.008.05.025l.065.08a.669.669 0 0 1-.16.14 1.26 1.26 0 0 1-.22.113 1.641 1.641 0 0 1-.538.1c-.17 0-.325-.03-.465-.088a.999.999 0 0 1-.36-.26 1.195 1.195 0 0 1-.232-.415 1.836 1.836 0 0 1-.08-.565c0-.178.025-.343.075-.493.051-.151.125-.281.22-.39.096-.11.214-.195.352-.257a1.16 1.16 0 0 1 .475-.093c.14 0 .27.025.39.073.12.048.224.12.313.213a.966.966 0 0 1 .207.34c.052.135.078.29.078.465 0 .036-.005.061-.015.075-.01.013-.027.02-.05.02h-1.81Zm3.827.957c.138 0 .258-.016.358-.048a.661.661 0 0 0 .245-.132.525.525 0 0 0 .142-.205.742.742 0 0 0 .045-.263.533.533 0 0 0-.198-.437c-.131-.108-.329-.162-.592-.162h-.775v1.247h.775ZM31.272.8v1.222h.64c.137 0 .255-.014.355-.044a.703.703 0 0 0 .25-.125.485.485 0 0 0 .147-.193.648.648 0 0 0 .048-.25c0-.212-.063-.366-.19-.462-.127-.099-.323-.148-.59-.148h-.66Zm.66-.383c.22 0 .41.022.567.066.16.043.291.105.393.184.103.08.18.179.227.295a.997.997 0 0 1 .073.39.77.77 0 0 1-.165.48.895.895 0 0 1-.21.19c-.083.056-.182.1-.295.136.263.05.46.144.593.282a.74.74 0 0 1 .2.54c0 .152-.029.29-.085.415a.87.87 0 0 1-.245.322c-.107.09-.239.16-.395.21a1.814 1.814 0 0 1-.536.073H30.79V.417h1.143ZM35.25 2.86c-.205.007-.38.023-.525.05-.143.025-.26.058-.352.1a.499.499 0 0 0-.198.148.322.322 0 0 0-.06.19c0 .066.011.124.033.172a.34.34 0 0 0 .087.12c.039.03.083.052.133.067.052.014.107.02.165.02a.96.96 0 0 0 .215-.022.969.969 0 0 0 .347-.178c.054-.041.105-.089.155-.142V2.86Zm-1.437-1.035c.14-.135.29-.236.452-.302.162-.067.341-.1.538-.1a.95.95 0 0 1 .377.07.774.774 0 0 1 .448.497c.038.118.057.248.057.39V4h-.197a.204.204 0 0 1-.1-.02c-.023-.015-.042-.043-.055-.085l-.05-.24a2.722 2.722 0 0 1-.195.165 1.077 1.077 0 0 1-.425.193 1.154 1.154 0 0 1-.263.027.939.939 0 0 1-.277-.04.605.605 0 0 1-.38-.333.753.753 0 0 1-.055-.3c0-.1.027-.195.082-.287a.719.719 0 0 1 .268-.248 1.73 1.73 0 0 1 .482-.174c.199-.047.442-.074.73-.08V2.38c0-.197-.042-.345-.127-.445-.085-.102-.21-.153-.373-.153a.79.79 0 0 0-.277.043.986.986 0 0 0-.193.093 2.96 2.96 0 0 0-.14.092.2.2 0 0 1-.115.04.133.133 0 0 1-.077-.022.236.236 0 0 1-.055-.06l-.08-.143Zm2.973.15a1.13 1.13 0 0 1 .295-.405.641.641 0 0 1 .427-.147c.054 0 .104.005.153.017.05.012.094.03.132.055l-.032.332c-.01.042-.035.063-.075.063a.516.516 0 0 1-.103-.015.705.705 0 0 0-.367.02.507.507 0 0 0-.168.105.744.744 0 0 0-.132.17 1.489 1.489 0 0 0-.105.23V4h-.448V1.468h.255c.049 0 .082.009.1.027.019.018.031.05.038.095l.03.385Z" fill="#332E20"/></svg>