<svg width="38" height="5" viewBox="0 0 38 5" fill="none" xmlns="http://www.w3.org/2000/svg">
<path d="M2.9725 3.26C2.99917 3.26 3.0225 3.27083 3.0425 3.2925L3.235 3.5C3.08833 3.67 2.91 3.8025 2.7 3.8975C2.49167 3.9925 2.23917 4.04 1.9425 4.04C1.68583 4.04 1.4525 3.99583 1.2425 3.9075C1.0325 3.8175 0.853333 3.6925 0.705 3.5325C0.556667 3.37083 0.441667 3.1775 0.36 2.9525C0.278333 2.7275 0.2375 2.48 0.2375 2.21C0.2375 1.94 0.28 1.6925 0.365 1.4675C0.45 1.2425 0.569167 1.04917 0.7225 0.8875C0.8775 0.725833 1.0625 0.600833 1.2775 0.5125C1.4925 0.4225 1.73 0.3775 1.99 0.3775C2.245 0.3775 2.47 0.418333 2.665 0.5C2.86 0.581666 3.03167 0.6925 3.18 0.8325L3.02 1.055C3.01 1.07167 2.99667 1.08583 2.98 1.0975C2.965 1.1075 2.94417 1.1125 2.9175 1.1125C2.8875 1.1125 2.85083 1.09667 2.8075 1.065C2.76417 1.03167 2.7075 0.995 2.6375 0.955C2.5675 0.915 2.48 0.879166 2.375 0.8475C2.27 0.814167 2.14083 0.7975 1.9875 0.7975C1.8025 0.7975 1.63333 0.83 1.48 0.895C1.32667 0.958333 1.19417 1.05083 1.0825 1.1725C0.9725 1.29417 0.886667 1.4425 0.825 1.6175C0.763333 1.7925 0.7325 1.99 0.7325 2.21C0.7325 2.43333 0.764167 2.6325 0.8275 2.8075C0.8925 2.9825 0.98 3.13083 1.09 3.2525C1.20167 3.3725 1.3325 3.46417 1.4825 3.5275C1.63417 3.59083 1.7975 3.6225 1.9725 3.6225C2.07917 3.6225 2.175 3.61667 2.26 3.605C2.34667 3.59167 2.42583 3.57167 2.4975 3.545C2.57083 3.51833 2.63833 3.485 2.7 3.445C2.76333 3.40333 2.82583 3.35417 2.8875 3.2975C2.91583 3.2725 2.94417 3.26 2.9725 3.26ZM5.06484 2.86C4.85984 2.86667 4.68484 2.88333 4.53984 2.91C4.39651 2.935 4.27901 2.96833 4.18734 3.01C4.09734 3.05167 4.03151 3.10083 3.98984 3.1575C3.94984 3.21417 3.92984 3.2775 3.92984 3.3475C3.92984 3.41417 3.94068 3.47167 3.96234 3.52C3.98401 3.56833 4.01318 3.60833 4.04984 3.64C4.08818 3.67 4.13234 3.6925 4.18234 3.7075C4.23401 3.72083 4.28901 3.7275 4.34734 3.7275C4.42568 3.7275 4.49734 3.72 4.56234 3.705C4.62734 3.68833 4.68818 3.665 4.74484 3.635C4.80318 3.605 4.85818 3.56917 4.90984 3.5275C4.96318 3.48583 5.01484 3.43833 5.06484 3.385V2.86ZM3.62734 1.825C3.76734 1.69 3.91818 1.58917 4.07984 1.5225C4.24151 1.45583 4.42068 1.4225 4.61734 1.4225C4.75901 1.4225 4.88484 1.44583 4.99484 1.4925C5.10484 1.53917 5.19734 1.60417 5.27234 1.6875C5.34734 1.77083 5.40401 1.87167 5.44234 1.99C5.48068 2.10833 5.49984 2.23833 5.49984 2.38V4H5.30234C5.25901 4 5.22568 3.99333 5.20234 3.98C5.17901 3.965 5.16068 3.93667 5.14734 3.895L5.09734 3.655C5.03068 3.71667 4.96568 3.77167 4.90234 3.82C4.83901 3.86667 4.77234 3.90667 4.70234 3.94C4.63234 3.97167 4.55734 3.99583 4.47734 4.0125C4.39901 4.03083 4.31151 4.04 4.21484 4.04C4.11651 4.04 4.02401 4.02667 3.93734 4C3.85068 3.97167 3.77484 3.93 3.70984 3.875C3.64651 3.82 3.59568 3.75083 3.55734 3.6675C3.52068 3.5825 3.50234 3.4825 3.50234 3.3675C3.50234 3.2675 3.52984 3.17167 3.58484 3.08C3.63984 2.98667 3.72901 2.90417 3.85234 2.8325C3.97568 2.76083 4.13651 2.7025 4.33484 2.6575C4.53318 2.61083 4.77651 2.58417 5.06484 2.5775V2.38C5.06484 2.18333 5.02234 2.035 4.93734 1.935C4.85234 1.83333 4.72818 1.7825 4.56484 1.7825C4.45484 1.7825 4.36234 1.79667 4.28734 1.825C4.21401 1.85167 4.14984 1.8825 4.09484 1.9175C4.04151 1.95083 3.99484 1.98167 3.95484 2.01C3.91651 2.03667 3.87818 2.05 3.83984 2.05C3.80984 2.05 3.78401 2.0425 3.76234 2.0275C3.74068 2.01083 3.72234 1.99083 3.70734 1.9675L3.62734 1.825ZM6.5977 1.835C6.6527 1.77333 6.71103 1.7175 6.7727 1.6675C6.83436 1.6175 6.89936 1.575 6.9677 1.54C7.0377 1.50333 7.11103 1.47583 7.1877 1.4575C7.26603 1.4375 7.3502 1.4275 7.4402 1.4275C7.57853 1.4275 7.7002 1.45083 7.8052 1.4975C7.91186 1.5425 8.0002 1.6075 8.0702 1.6925C8.14186 1.77583 8.19603 1.87667 8.2327 1.995C8.26936 2.11333 8.2877 2.24417 8.2877 2.3875V4H7.8402V2.3875C7.8402 2.19583 7.79603 2.0475 7.7077 1.9425C7.62103 1.83583 7.48853 1.7825 7.3102 1.7825C7.17853 1.7825 7.0552 1.81417 6.9402 1.8775C6.82686 1.94083 6.72186 2.02667 6.6252 2.135V4H6.1777V1.4675H6.4452C6.50853 1.4675 6.5477 1.49833 6.5627 1.56L6.5977 1.835ZM10.3383 2.86C10.1333 2.86667 9.95828 2.88333 9.81328 2.91C9.66995 2.935 9.55245 2.96833 9.46078 3.01C9.37078 3.05167 9.30495 3.10083 9.26328 3.1575C9.22328 3.21417 9.20328 3.2775 9.20328 3.3475C9.20328 3.41417 9.21411 3.47167 9.23578 3.52C9.25745 3.56833 9.28661 3.60833 9.32328 3.64C9.36161 3.67 9.40578 3.6925 9.45578 3.7075C9.50745 3.72083 9.56245 3.7275 9.62078 3.7275C9.69911 3.7275 9.77078 3.72 9.83578 3.705C9.90078 3.68833 9.96161 3.665 10.0183 3.635C10.0766 3.605 10.1316 3.56917 10.1833 3.5275C10.2366 3.48583 10.2883 3.43833 10.3383 3.385V2.86ZM8.90078 1.825C9.04078 1.69 9.19161 1.58917 9.35328 1.5225C9.51495 1.45583 9.69411 1.4225 9.89078 1.4225C10.0324 1.4225 10.1583 1.44583 10.2683 1.4925C10.3783 1.53917 10.4708 1.60417 10.5458 1.6875C10.6208 1.77083 10.6774 1.87167 10.7158 1.99C10.7541 2.10833 10.7733 2.23833 10.7733 2.38V4H10.5758C10.5324 4 10.4991 3.99333 10.4758 3.98C10.4524 3.965 10.4341 3.93667 10.4208 3.895L10.3708 3.655C10.3041 3.71667 10.2391 3.77167 10.1758 3.82C10.1124 3.86667 10.0458 3.90667 9.97578 3.94C9.90578 3.97167 9.83078 3.99583 9.75078 4.0125C9.67245 4.03083 9.58495 4.04 9.48828 4.04C9.38995 4.04 9.29745 4.02667 9.21078 4C9.12411 3.97167 9.04828 3.93 8.98328 3.875C8.91995 3.82 8.86911 3.75083 8.83078 3.6675C8.79411 3.5825 8.77578 3.4825 8.77578 3.3675C8.77578 3.2675 8.80328 3.17167 8.85828 3.08C8.91328 2.98667 9.00245 2.90417 9.12578 2.8325C9.24911 2.76083 9.40995 2.7025 9.60828 2.6575C9.80661 2.61083 10.0499 2.58417 10.3383 2.5775V2.38C10.3383 2.18333 10.2958 2.035 10.2108 1.935C10.1258 1.83333 10.0016 1.7825 9.83828 1.7825C9.72828 1.7825 9.63578 1.79667 9.56078 1.825C9.48745 1.85167 9.42328 1.8825 9.36828 1.9175C9.31495 1.95083 9.26828 1.98167 9.22828 2.01C9.18995 2.03667 9.15161 2.05 9.11328 2.05C9.08328 2.05 9.05745 2.0425 9.03578 2.0275C9.01411 2.01083 8.99578 1.99083 8.98078 1.9675L8.90078 1.825ZM13.1011 2.07C13.0178 1.95833 12.9278 1.88083 12.8311 1.8375C12.7345 1.7925 12.6261 1.77 12.5061 1.77C12.2711 1.77 12.0903 1.85417 11.9636 2.0225C11.837 2.19083 11.7736 2.43083 11.7736 2.7425C11.7736 2.9075 11.7878 3.04917 11.8161 3.1675C11.8445 3.28417 11.8861 3.38083 11.9411 3.4575C11.9961 3.5325 12.0636 3.5875 12.1436 3.6225C12.2236 3.6575 12.3145 3.675 12.4161 3.675C12.5628 3.675 12.6903 3.64167 12.7986 3.575C12.9086 3.50833 13.0095 3.41417 13.1011 3.2925V2.07ZM13.5461 0.3175V4H13.2811C13.2178 4 13.1778 3.96917 13.1611 3.9075L13.1211 3.6C13.0128 3.73 12.8895 3.835 12.7511 3.915C12.6128 3.995 12.4528 4.035 12.2711 4.035C12.1261 4.035 11.9945 4.0075 11.8761 3.9525C11.7578 3.89583 11.657 3.81333 11.5736 3.705C11.4903 3.59667 11.4261 3.46167 11.3811 3.3C11.3361 3.13833 11.3136 2.9525 11.3136 2.7425C11.3136 2.55583 11.3386 2.3825 11.3886 2.2225C11.4386 2.06083 11.5103 1.92083 11.6036 1.8025C11.697 1.68417 11.8111 1.59167 11.9461 1.525C12.0828 1.45667 12.2361 1.4225 12.4061 1.4225C12.5611 1.4225 12.6936 1.44917 12.8036 1.5025C12.9153 1.55417 13.0145 1.62667 13.1011 1.72V0.3175H13.5461ZM15.6215 2.86C15.4165 2.86667 15.2415 2.88333 15.0965 2.91C14.9532 2.935 14.8357 2.96833 14.744 3.01C14.654 3.05167 14.5882 3.10083 14.5465 3.1575C14.5065 3.21417 14.4865 3.2775 14.4865 3.3475C14.4865 3.41417 14.4973 3.47167 14.519 3.52C14.5407 3.56833 14.5698 3.60833 14.6065 3.64C14.6448 3.67 14.689 3.6925 14.739 3.7075C14.7907 3.72083 14.8457 3.7275 14.904 3.7275C14.9823 3.7275 15.054 3.72 15.119 3.705C15.184 3.68833 15.2448 3.665 15.3015 3.635C15.3598 3.605 15.4148 3.56917 15.4665 3.5275C15.5198 3.48583 15.5715 3.43833 15.6215 3.385V2.86ZM14.184 1.825C14.324 1.69 14.4748 1.58917 14.6365 1.5225C14.7982 1.45583 14.9773 1.4225 15.174 1.4225C15.3157 1.4225 15.4415 1.44583 15.5515 1.4925C15.6615 1.53917 15.754 1.60417 15.829 1.6875C15.904 1.77083 15.9607 1.87167 15.999 1.99C16.0373 2.10833 16.0565 2.23833 16.0565 2.38V4H15.859C15.8157 4 15.7823 3.99333 15.759 3.98C15.7357 3.965 15.7173 3.93667 15.704 3.895L15.654 3.655C15.5873 3.71667 15.5223 3.77167 15.459 3.82C15.3957 3.86667 15.329 3.90667 15.259 3.94C15.189 3.97167 15.114 3.99583 15.034 4.0125C14.9557 4.03083 14.8682 4.04 14.7715 4.04C14.6732 4.04 14.5807 4.02667 14.494 4C14.4073 3.97167 14.3315 3.93 14.2665 3.875C14.2032 3.82 14.1523 3.75083 14.114 3.6675C14.0773 3.5825 14.059 3.4825 14.059 3.3675C14.059 3.2675 14.0865 3.17167 14.1415 3.08C14.1965 2.98667 14.2857 2.90417 14.409 2.8325C14.5323 2.76083 14.6932 2.7025 14.8915 2.6575C15.0898 2.61083 15.3332 2.58417 15.6215 2.5775V2.38C15.6215 2.18333 15.579 2.035 15.494 1.935C15.409 1.83333 15.2848 1.7825 15.1215 1.7825C15.0115 1.7825 14.919 1.79667 14.844 1.825C14.7707 1.85167 14.7065 1.8825 14.6515 1.9175C14.5982 1.95083 14.5515 1.98167 14.5115 2.01C14.4732 2.03667 14.4348 2.05 14.3965 2.05C14.3665 2.05 14.3407 2.0425 14.319 2.0275C14.2973 2.01083 14.279 1.99083 14.264 1.9675L14.184 1.825ZM19.7293 2.395V3.6525C19.5527 3.7775 19.3643 3.87333 19.1643 3.94C18.9643 4.00667 18.7393 4.04 18.4893 4.04C18.2093 4.04 17.9577 3.9975 17.7343 3.9125C17.511 3.82583 17.3202 3.70417 17.1618 3.5475C17.0052 3.38917 16.8843 3.19833 16.7993 2.975C16.716 2.75167 16.6743 2.50333 16.6743 2.23C16.6743 1.95667 16.7152 1.70917 16.7968 1.4875C16.8802 1.26417 16.9985 1.07417 17.1518 0.9175C17.3068 0.759167 17.4935 0.6375 17.7118 0.5525C17.9302 0.465833 18.176 0.4225 18.4493 0.4225C18.5843 0.4225 18.7085 0.431666 18.8218 0.45C18.9368 0.468333 19.0435 0.495833 19.1418 0.5325C19.2402 0.5675 19.3318 0.611666 19.4168 0.665C19.5018 0.716666 19.5835 0.776666 19.6618 0.845L19.5918 0.955C19.5685 0.995 19.5335 1.00417 19.4868 0.9825C19.4618 0.9725 19.426 0.949167 19.3793 0.9125C19.3327 0.875833 19.2685 0.8375 19.1868 0.7975C19.1052 0.7575 19.0035 0.721666 18.8818 0.69C18.7618 0.658333 18.6152 0.6425 18.4418 0.6425C18.2118 0.6425 18.0035 0.679167 17.8168 0.7525C17.6318 0.825833 17.4735 0.930833 17.3418 1.0675C17.2118 1.20417 17.111 1.37083 17.0393 1.5675C16.9693 1.76417 16.9343 1.985 16.9343 2.23C16.9343 2.47833 16.9693 2.70167 17.0393 2.9C17.111 3.09833 17.2135 3.26667 17.3468 3.405C17.4818 3.54333 17.6452 3.64917 17.8368 3.7225C18.0285 3.79583 18.2443 3.8325 18.4843 3.8325C18.5893 3.8325 18.686 3.82583 18.7743 3.8125C18.8643 3.79917 18.9493 3.78083 19.0293 3.7575C19.111 3.7325 19.1893 3.7025 19.2643 3.6675C19.341 3.63083 19.4185 3.59 19.4968 3.545V2.5925H18.8193C18.801 2.5925 18.7852 2.58667 18.7718 2.575C18.7602 2.56333 18.7543 2.55 18.7543 2.535V2.395H19.7293ZM21.4194 1.4725C21.5977 1.4725 21.7569 1.50333 21.8969 1.565C22.0386 1.625 22.1577 1.71083 22.2544 1.8225C22.3511 1.93417 22.4244 2.06917 22.4744 2.2275C22.5261 2.38417 22.5519 2.56 22.5519 2.755C22.5519 2.95 22.5261 3.12583 22.4744 3.2825C22.4244 3.43917 22.3511 3.57333 22.2544 3.685C22.1577 3.79667 22.0386 3.8825 21.8969 3.9425C21.7569 4.0025 21.5977 4.0325 21.4194 4.0325C21.2411 4.0325 21.0811 4.0025 20.9394 3.9425C20.7994 3.8825 20.6802 3.79667 20.5819 3.685C20.4852 3.57333 20.4111 3.43917 20.3594 3.2825C20.3094 3.12583 20.2844 2.95 20.2844 2.755C20.2844 2.56 20.3094 2.38417 20.3594 2.2275C20.4111 2.06917 20.4852 1.93417 20.5819 1.8225C20.6802 1.71083 20.7994 1.625 20.9394 1.565C21.0811 1.50333 21.2411 1.4725 21.4194 1.4725ZM21.4194 3.845C21.5677 3.845 21.6969 3.82 21.8069 3.77C21.9186 3.71833 22.0111 3.645 22.0844 3.55C22.1594 3.455 22.2152 3.34083 22.2519 3.2075C22.2886 3.0725 22.3069 2.92167 22.3069 2.755C22.3069 2.59 22.2886 2.44 22.2519 2.305C22.2152 2.17 22.1594 2.055 22.0844 1.96C22.0111 1.86333 21.9186 1.78917 21.8069 1.7375C21.6969 1.68583 21.5677 1.66 21.4194 1.66C21.2711 1.66 21.1411 1.68583 21.0294 1.7375C20.9194 1.78917 20.8269 1.86333 20.7519 1.96C20.6786 2.055 20.6227 2.17 20.5844 2.305C20.5477 2.44 20.5294 2.59 20.5294 2.755C20.5294 2.92167 20.5477 3.0725 20.5844 3.2075C20.6227 3.34083 20.6786 3.455 20.7519 3.55C20.8269 3.645 20.9194 3.71833 21.0294 3.77C21.1411 3.82 21.2711 3.845 21.4194 3.845ZM24.2075 1.4725C24.3858 1.4725 24.545 1.50333 24.685 1.565C24.8267 1.625 24.9458 1.71083 25.0425 1.8225C25.1392 1.93417 25.2125 2.06917 25.2625 2.2275C25.3142 2.38417 25.34 2.56 25.34 2.755C25.34 2.95 25.3142 3.12583 25.2625 3.2825C25.2125 3.43917 25.1392 3.57333 25.0425 3.685C24.9458 3.79667 24.8267 3.8825 24.685 3.9425C24.545 4.0025 24.3858 4.0325 24.2075 4.0325C24.0292 4.0325 23.8692 4.0025 23.7275 3.9425C23.5875 3.8825 23.4683 3.79667 23.37 3.685C23.2733 3.57333 23.1992 3.43917 23.1475 3.2825C23.0975 3.12583 23.0725 2.95 23.0725 2.755C23.0725 2.56 23.0975 2.38417 23.1475 2.2275C23.1992 2.06917 23.2733 1.93417 23.37 1.8225C23.4683 1.71083 23.5875 1.625 23.7275 1.565C23.8692 1.50333 24.0292 1.4725 24.2075 1.4725ZM24.2075 3.845C24.3558 3.845 24.485 3.82 24.595 3.77C24.7067 3.71833 24.7992 3.645 24.8725 3.55C24.9475 3.455 25.0033 3.34083 25.04 3.2075C25.0767 3.0725 25.095 2.92167 25.095 2.755C25.095 2.59 25.0767 2.44 25.04 2.305C25.0033 2.17 24.9475 2.055 24.8725 1.96C24.7992 1.86333 24.7067 1.78917 24.595 1.7375C24.485 1.68583 24.3558 1.66 24.2075 1.66C24.0592 1.66 23.9292 1.68583 23.8175 1.7375C23.7075 1.78917 23.615 1.86333 23.54 1.96C23.4667 2.055 23.4108 2.17 23.3725 2.305C23.3358 2.44 23.3175 2.59 23.3175 2.755C23.3175 2.92167 23.3358 3.0725 23.3725 3.2075C23.4108 3.34083 23.4667 3.455 23.54 3.55C23.615 3.645 23.7075 3.71833 23.8175 3.77C23.9292 3.82 24.0592 3.845 24.2075 3.845ZM27.3781 1.82C27.3648 1.84333 27.3456 1.855 27.3206 1.855C27.3023 1.855 27.2789 1.845 27.2506 1.825C27.2223 1.80333 27.1839 1.78 27.1356 1.755C27.0889 1.72833 27.0306 1.705 26.9606 1.685C26.8906 1.66333 26.8056 1.6525 26.7056 1.6525C26.6156 1.6525 26.5331 1.66583 26.4581 1.6925C26.3848 1.7175 26.3214 1.75167 26.2681 1.795C26.2164 1.83833 26.1764 1.88917 26.1481 1.9475C26.1198 2.00417 26.1056 2.06417 26.1056 2.1275C26.1056 2.20583 26.1256 2.27083 26.1656 2.3225C26.2056 2.37417 26.2573 2.41833 26.3206 2.455C26.3856 2.49167 26.4598 2.52333 26.5431 2.55C26.6264 2.57667 26.7106 2.60333 26.7956 2.63C26.8823 2.65667 26.9673 2.68667 27.0506 2.72C27.1339 2.75167 27.2073 2.79167 27.2706 2.84C27.3356 2.88833 27.3881 2.9475 27.4281 3.0175C27.4681 3.0875 27.4881 3.1725 27.4881 3.2725C27.4881 3.38083 27.4689 3.48167 27.4306 3.575C27.3923 3.66833 27.3356 3.74917 27.2606 3.8175C27.1873 3.88583 27.0964 3.94 26.9881 3.98C26.8798 4.02 26.7556 4.04 26.6156 4.04C26.4406 4.04 26.2898 4.0125 26.1631 3.9575C26.0364 3.90083 25.9231 3.8275 25.8231 3.7375L25.8781 3.6525C25.8864 3.63917 25.8956 3.62917 25.9056 3.6225C25.9173 3.61583 25.9323 3.6125 25.9506 3.6125C25.9723 3.6125 25.9981 3.62583 26.0281 3.6525C26.0598 3.67917 26.1014 3.70833 26.1531 3.74C26.2048 3.77 26.2681 3.79833 26.3431 3.825C26.4198 3.85167 26.5139 3.865 26.6256 3.865C26.7306 3.865 26.8231 3.85083 26.9031 3.8225C26.9831 3.7925 27.0498 3.7525 27.1031 3.7025C27.1564 3.6525 27.1964 3.59417 27.2231 3.5275C27.2514 3.45917 27.2656 3.3875 27.2656 3.3125C27.2656 3.22917 27.2456 3.16 27.2056 3.105C27.1656 3.05 27.1131 3.00333 27.0481 2.965C26.9831 2.92667 26.9089 2.89417 26.8256 2.8675C26.7439 2.84083 26.6598 2.81417 26.5731 2.7875C26.4864 2.76083 26.4014 2.73167 26.3181 2.7C26.2364 2.66833 26.1631 2.62833 26.0981 2.58C26.0331 2.53167 25.9806 2.47333 25.9406 2.405C25.9006 2.335 25.8806 2.24833 25.8806 2.145C25.8806 2.05667 25.8998 1.97167 25.9381 1.89C25.9764 1.80833 26.0306 1.73667 26.1006 1.675C26.1723 1.61333 26.2589 1.56417 26.3606 1.5275C26.4623 1.49083 26.5764 1.4725 26.7031 1.4725C26.8548 1.4725 26.9889 1.49417 27.1056 1.5375C27.2239 1.58083 27.3314 1.6475 27.4281 1.7375L27.3781 1.82ZM29.8796 2.505C29.8796 2.37167 29.8604 2.2525 29.8221 2.1475C29.7854 2.04083 29.7329 1.95083 29.6646 1.8775C29.5963 1.80417 29.5146 1.74833 29.4196 1.71C29.3263 1.67 29.2229 1.65 29.1096 1.65C28.9813 1.65 28.8663 1.67 28.7646 1.71C28.6629 1.75 28.5746 1.8075 28.4996 1.8825C28.4263 1.9575 28.3671 2.0475 28.3221 2.1525C28.2771 2.2575 28.2471 2.375 28.2321 2.505H29.8796ZM28.2196 2.6575V2.705C28.2196 2.89167 28.2413 3.05583 28.2846 3.1975C28.3279 3.33917 28.3896 3.45833 28.4696 3.555C28.5496 3.65 28.6463 3.72167 28.7596 3.77C28.8729 3.81833 28.9996 3.8425 29.1396 3.8425C29.2646 3.8425 29.3729 3.82917 29.4646 3.8025C29.5563 3.77417 29.6329 3.74333 29.6946 3.71C29.7579 3.675 29.8079 3.64417 29.8446 3.6175C29.8813 3.58917 29.9079 3.575 29.9246 3.575C29.9463 3.575 29.9629 3.58333 29.9746 3.6L30.0396 3.68C29.9996 3.73 29.9463 3.77667 29.8796 3.82C29.8146 3.86333 29.7413 3.90083 29.6596 3.9325C29.5796 3.9625 29.4929 3.98667 29.3996 4.005C29.3079 4.02333 29.2154 4.0325 29.1221 4.0325C28.9521 4.0325 28.7971 4.00333 28.6571 3.945C28.5171 3.885 28.3971 3.79833 28.2971 3.685C28.1971 3.57167 28.1196 3.43333 28.0646 3.27C28.0113 3.105 27.9846 2.91667 27.9846 2.705C27.9846 2.52667 28.0096 2.3625 28.0596 2.2125C28.1113 2.06083 28.1846 1.93083 28.2796 1.8225C28.3763 1.7125 28.4938 1.62667 28.6321 1.565C28.7721 1.50333 28.9304 1.4725 29.1071 1.4725C29.2471 1.4725 29.3771 1.49667 29.4971 1.545C29.6171 1.59333 29.7213 1.66417 29.8096 1.7575C29.8979 1.84917 29.9671 1.9625 30.0171 2.0975C30.0688 2.2325 30.0946 2.3875 30.0946 2.5625C30.0946 2.59917 30.0896 2.62417 30.0796 2.6375C30.0696 2.65083 30.0529 2.6575 30.0296 2.6575H28.2196ZM32.047 3.615C32.1854 3.615 32.3045 3.59917 32.4045 3.5675C32.5045 3.53583 32.5862 3.49167 32.6495 3.435C32.7145 3.37667 32.762 3.30833 32.792 3.23C32.822 3.15 32.837 3.0625 32.837 2.9675C32.837 2.7825 32.7712 2.63667 32.6395 2.53C32.5079 2.42167 32.3104 2.3675 32.047 2.3675H31.272V3.615H32.047ZM31.272 0.8V2.0225H31.912C32.0487 2.0225 32.167 2.0075 32.267 1.9775C32.3687 1.9475 32.452 1.90583 32.517 1.8525C32.5837 1.79917 32.6329 1.735 32.6645 1.66C32.6962 1.58333 32.712 1.5 32.712 1.41C32.712 1.19833 32.6487 1.04417 32.522 0.9475C32.3954 0.849166 32.1987 0.8 31.932 0.8H31.272ZM31.932 0.4175C32.152 0.4175 32.3412 0.439166 32.4995 0.4825C32.6595 0.525833 32.7904 0.5875 32.892 0.6675C32.9954 0.7475 33.0712 0.845833 33.1195 0.9625C33.1679 1.0775 33.192 1.2075 33.192 1.3525C33.192 1.44083 33.1779 1.52583 33.1495 1.6075C33.1229 1.6875 33.082 1.7625 33.027 1.8325C32.972 1.9025 32.902 1.96583 32.817 2.0225C32.7337 2.0775 32.6354 2.1225 32.522 2.1575C32.7854 2.2075 32.9829 2.30167 33.1145 2.44C33.2479 2.57667 33.3145 2.75667 33.3145 2.98C33.3145 3.13167 33.2862 3.27 33.2295 3.395C33.1745 3.52 33.0929 3.6275 32.9845 3.7175C32.8779 3.8075 32.7462 3.8775 32.5895 3.9275C32.4329 3.97583 32.2545 4 32.0545 4H30.7895V0.4175H31.932ZM35.2504 2.86C35.0454 2.86667 34.8704 2.88333 34.7254 2.91C34.5821 2.935 34.4646 2.96833 34.3729 3.01C34.2829 3.05167 34.2171 3.10083 34.1754 3.1575C34.1354 3.21417 34.1154 3.2775 34.1154 3.3475C34.1154 3.41417 34.1262 3.47167 34.1479 3.52C34.1696 3.56833 34.1987 3.60833 34.2354 3.64C34.2737 3.67 34.3179 3.6925 34.3679 3.7075C34.4196 3.72083 34.4746 3.7275 34.5329 3.7275C34.6112 3.7275 34.6829 3.72 34.7479 3.705C34.8129 3.68833 34.8737 3.665 34.9304 3.635C34.9887 3.605 35.0437 3.56917 35.0954 3.5275C35.1487 3.48583 35.2004 3.43833 35.2504 3.385V2.86ZM33.8129 1.825C33.9529 1.69 34.1037 1.58917 34.2654 1.5225C34.4271 1.45583 34.6062 1.4225 34.8029 1.4225C34.9446 1.4225 35.0704 1.44583 35.1804 1.4925C35.2904 1.53917 35.3829 1.60417 35.4579 1.6875C35.5329 1.77083 35.5896 1.87167 35.6279 1.99C35.6662 2.10833 35.6854 2.23833 35.6854 2.38V4H35.4879C35.4446 4 35.4112 3.99333 35.3879 3.98C35.3646 3.965 35.3462 3.93667 35.3329 3.895L35.2829 3.655C35.2162 3.71667 35.1512 3.77167 35.0879 3.82C35.0246 3.86667 34.9579 3.90667 34.8879 3.94C34.8179 3.97167 34.7429 3.99583 34.6629 4.0125C34.5846 4.03083 34.4971 4.04 34.4004 4.04C34.3021 4.04 34.2096 4.02667 34.1229 4C34.0362 3.97167 33.9604 3.93 33.8954 3.875C33.8321 3.82 33.7812 3.75083 33.7429 3.6675C33.7062 3.5825 33.6879 3.4825 33.6879 3.3675C33.6879 3.2675 33.7154 3.17167 33.7704 3.08C33.8254 2.98667 33.9146 2.90417 34.0379 2.8325C34.1612 2.76083 34.3221 2.7025 34.5204 2.6575C34.7187 2.61083 34.9621 2.58417 35.2504 2.5775V2.38C35.2504 2.18333 35.2079 2.035 35.1229 1.935C35.0379 1.83333 34.9137 1.7825 34.7504 1.7825C34.6404 1.7825 34.5479 1.79667 34.4729 1.825C34.3996 1.85167 34.3354 1.8825 34.2804 1.9175C34.2271 1.95083 34.1804 1.98167 34.1404 2.01C34.1021 2.03667 34.0637 2.05 34.0254 2.05C33.9954 2.05 33.9696 2.0425 33.9479 2.0275C33.9262 2.01083 33.9079 1.99083 33.8929 1.9675L33.8129 1.825ZM36.7857 1.975C36.8657 1.80167 36.9641 1.66667 37.0807 1.57C37.1974 1.47167 37.3399 1.4225 37.5082 1.4225C37.5616 1.4225 37.6124 1.42833 37.6607 1.44C37.7107 1.45167 37.7549 1.47 37.7932 1.495L37.7607 1.8275C37.7507 1.86917 37.7257 1.89 37.6857 1.89C37.6624 1.89 37.6282 1.885 37.5832 1.875C37.5382 1.865 37.4874 1.86 37.4307 1.86C37.3507 1.86 37.2791 1.87167 37.2157 1.895C37.1541 1.91833 37.0982 1.95333 37.0482 2C36.9999 2.045 36.9557 2.10167 36.9157 2.17C36.8774 2.23667 36.8424 2.31333 36.8107 2.4V4H36.3632V1.4675H36.6182C36.6666 1.4675 36.6999 1.47667 36.7182 1.495C36.7366 1.51333 36.7491 1.545 36.7557 1.59L36.7857 1.975Z" fill="#332E20"/>
</svg>
